# This file uses centimeters as units for non-parametric coordinates.

mtllib borderfence.mtl
g default
v -0.500000 0.004026 0.500000
v 0.500000 0.004026 0.500000
v -0.500000 1.004026 0.500000
v 0.500000 1.004026 0.500000
v -0.500000 1.004026 -0.500000
v 0.500000 1.004026 -0.500000
v -0.500000 0.004026 -0.500000
v 0.500000 0.004026 -0.500000
v -0.140958 1.004026 0.141100
v 0.136007 1.004026 0.141100
v 0.136007 1.004026 -0.136148
v -0.140958 1.004026 -0.136148
v -0.140958 2.999184 0.141100
v 0.136007 2.999184 0.141100
v 0.136007 2.999184 -0.136148
v -0.140958 2.999184 -0.136148
v -0.140958 1.004026 0.500000
v -0.140958 0.004026 0.500000
v -0.140958 0.004026 -0.500000
v -0.140958 1.004026 -0.500000
v 0.136007 1.004026 -0.500000
v 0.136007 0.004026 -0.500000
v 0.136007 0.004026 0.500000
v 0.136007 1.004026 0.500000
v 0.500000 1.004026 0.141100
v 0.500000 0.004026 0.141100
v 0.136007 0.004026 0.141100
v -0.140958 0.004026 0.141100
v -0.500000 0.004026 0.141100
v -0.500000 1.004026 0.141100
v -0.500000 1.004026 -0.136148
v -0.500000 0.004026 -0.136148
v -0.140958 0.004026 -0.136148
v 0.136007 0.004026 -0.136148
v 0.500000 0.004026 -0.136148
v 0.500000 1.004026 -0.136148
v 0.136007 0.337360 -0.500000
v -0.140958 0.337360 -0.500000
v -0.500000 0.337360 -0.500000
v -0.500000 0.337360 -0.136148
v -0.500000 0.337360 0.141100
v -0.500000 0.337360 0.500000
v -0.140958 0.337360 0.500000
v 0.136007 0.337360 0.500000
v 0.500000 0.337360 0.500000
v 0.500000 0.337360 0.141100
v 0.500000 0.337360 -0.136148
v 0.500000 0.337360 -0.500000
v 0.136007 0.670693 -0.500000
v -0.140958 0.670693 -0.500000
v -0.500000 0.670693 -0.500000
v -0.500000 0.670693 -0.136148
v -0.500000 0.670693 0.141100
v -0.500000 0.670693 0.500000
v -0.140958 0.670693 0.500000
v 0.136007 0.670693 0.500000
v 0.500000 0.670693 0.500000
v 0.500000 0.670693 0.141100
v 0.500000 0.670693 -0.136148
v 0.500000 0.670693 -0.500000
vt 0.366502 0.562853
vt 0.366533 0.632677
vt 0.308458 0.632703
vt 0.308427 0.562879
vt 0.441712 0.632643
vt 0.441681 0.562820
vt 0.366565 0.702500
vt 0.308490 0.702526
vt 0.232242 0.632737
vt 0.232211 0.562913
vt 0.441744 0.702467
vt 0.366596 0.772324
vt 0.308521 0.772350
vt 0.232273 0.702560
vt 0.232398 0.981854
vt 0.232304 0.772384
vt 0.784406 0.562667
vt 0.784437 0.632490
vt 0.726362 0.632516
vt 0.726331 0.562693
vt 0.860654 0.632456
vt 0.860622 0.562633
vt 0.784468 0.702314
vt 0.726393 0.702340
vt 0.651183 0.632550
vt 0.651152 0.562726
vt 0.860685 0.702280
vt 0.784500 0.772137
vt 0.726424 0.772163
vt 0.651214 0.702373
vt 0.860716 0.772103
vt 0.651245 0.772197
vt 0.366468 0.486607
vt 0.308393 0.486633
vt 0.155744 0.068804
vt 0.366282 0.068681
vt 0.097915 0.486757
vt 0.726297 0.487484
vt 0.575723 0.069654
vt 0.784188 0.069531
vt 0.097702 0.010755
vt 0.156118 0.906709
vt 0.098102 0.906735
vt 0.098076 0.848660
vt 0.156092 0.848634
vt 0.576037 0.772230
vt 0.156152 0.981888
vt 0.098042 0.772444
vt 0.156058 0.772418
vt 0.651118 0.487517
vt 0.517927 0.562786
vt 0.022706 0.486790
vt 0.097949 0.562973
vt 0.022740 0.563007
vt 0.155965 0.562947
vt 0.575943 0.562760
vt 0.575974 0.632583
vt 0.517958 0.632609
vt 0.576006 0.702407
vt 0.517990 0.702433
vt 0.097980 0.632797
vt 0.155996 0.632771
vt 0.022771 0.632830
vt 0.098011 0.702620
vt 0.156027 0.702594
vt 0.022803 0.702654
vt 0.517894 0.487606
vt 0.232177 0.486697
vt 0.784373 0.487458
vt 0.441647 0.486574
vt 0.097728 0.068830
vt 0.155718 0.010729
vt 0.232338 0.848600
vt 0.232364 0.906675
vt 0.022868 0.848693
vt 0.022894 0.906769
vt 0.022927 0.981948
vt 0.441775 0.772290
vt 0.518021 0.772256
vt 0.098136 0.981914
vt 0.022834 0.772477
vt 0.575910 0.487581
vt 0.155931 0.486731
vt 0.308207 0.068706
vt 0.517707 0.069680
vt 0.726112 0.069557
vn 0.000000 0.000000 1.000000
vn 0.000000 0.000000 1.000000
vn 0.000000 0.000000 1.000000
vn 0.000000 0.000000 1.000000
vn 0.000000 1.000000 0.000000
vn 0.000000 1.000000 0.000000
vn 0.000000 1.000000 0.000000
vn 0.000000 1.000000 0.000000
vn 0.000000 0.000000 -1.000000
vn 0.000000 0.000000 -1.000000
vn 0.000000 0.000000 -1.000000
vn 0.000000 0.000000 -1.000000
vn 0.000000 -1.000000 0.000000
vn 0.000000 -1.000000 0.000000
vn 0.000000 -1.000000 0.000000
vn 0.000000 -1.000000 0.000000
vn 1.000000 0.000000 0.000000
vn 1.000000 0.000000 0.000000
vn 1.000000 0.000000 0.000000
vn 1.000000 0.000000 0.000000
vn -1.000000 0.000000 0.000000
vn -1.000000 0.000000 0.000000
vn -1.000000 0.000000 0.000000
vn -1.000000 0.000000 0.000000
vn 0.000000 1.000000 0.000000
vn 0.000000 1.000000 0.000000
vn 0.000000 1.000000 0.000000
vn 0.000000 1.000000 0.000000
vn 0.000000 1.000000 0.000000
vn 0.000000 1.000000 0.000000
vn 0.000000 1.000000 0.000000
vn 0.000000 1.000000 0.000000
vn 0.000000 1.000000 0.000000
vn 0.000000 1.000000 0.000000
vn 0.000000 1.000000 0.000000
vn 0.000000 1.000000 0.000000
vn 0.000000 0.000000 1.000000
vn 0.000000 0.000000 1.000000
vn 0.000000 0.000000 1.000000
vn 0.000000 0.000000 1.000000
vn 1.000000 0.000000 0.000000
vn 1.000000 0.000000 0.000000
vn 1.000000 0.000000 0.000000
vn 1.000000 0.000000 0.000000
vn -0.000000 0.000000 -1.000000
vn -0.000000 0.000000 -1.000000
vn -0.000000 0.000000 -1.000000
vn -0.000000 0.000000 -1.000000
vn -1.000000 -0.000000 0.000000
vn -1.000000 -0.000000 0.000000
vn -1.000000 -0.000000 0.000000
vn -1.000000 -0.000000 0.000000
vn 0.000000 0.000000 1.000000
vn 0.000000 0.000000 1.000000
vn 0.000000 -1.000000 0.000000
vn 0.000000 -1.000000 0.000000
vn 0.000000 0.000000 -1.000000
vn 0.000000 0.000000 -1.000000
vn 0.000000 1.000000 0.000000
vn 0.000000 0.000000 -1.000000
vn 0.000000 0.000000 -1.000000
vn 0.000000 -1.000000 0.000000
vn 0.000000 -1.000000 0.000000
vn 0.000000 0.000000 1.000000
vn 0.000000 0.000000 1.000000
vn 0.000000 1.000000 0.000000
vn 1.000000 0.000000 0.000000
vn 1.000000 0.000000 0.000000
vn 0.000000 -1.000000 0.000000
vn 0.000000 -1.000000 0.000000
vn 0.000000 -1.000000 0.000000
vn 0.000000 -1.000000 0.000000
vn -1.000000 0.000000 0.000000
vn -1.000000 0.000000 0.000000
vn 0.000000 1.000000 0.000000
vn -1.000000 0.000000 0.000000
vn -1.000000 0.000000 0.000000
vn 0.000000 -1.000000 0.000000
vn 0.000000 -1.000000 0.000000
vn 0.000000 -1.000000 0.000000
vn 0.000000 -1.000000 0.000000
vn 1.000000 0.000000 0.000000
vn 1.000000 0.000000 0.000000
vn 0.000000 1.000000 0.000000
vn 0.000000 0.000000 -1.000000
vn 0.000000 0.000000 -1.000000
vn 0.000000 0.000000 -1.000000
vn 0.000000 0.000000 -1.000000
vn 0.000000 0.000000 -1.000000
vn 0.000000 0.000000 -1.000000
vn -1.000000 0.000000 0.000000
vn -1.000000 0.000000 0.000000
vn -1.000000 0.000000 0.000000
vn -1.000000 0.000000 0.000000
vn -1.000000 0.000000 0.000000
vn -1.000000 0.000000 0.000000
vn -1.000000 0.000000 0.000000
vn -1.000000 0.000000 0.000000
vn 0.000000 0.000000 1.000000
vn 0.000000 0.000000 1.000000
vn 0.000000 0.000000 1.000000
vn 0.000000 0.000000 1.000000
vn 0.000000 0.000000 1.000000
vn 0.000000 0.000000 1.000000
vn 0.000000 0.000000 1.000000
vn 0.000000 0.000000 1.000000
vn 1.000000 0.000000 0.000000
vn 1.000000 0.000000 0.000000
vn 1.000000 0.000000 0.000000
vn 1.000000 0.000000 0.000000
vn 1.000000 0.000000 0.000000
vn 1.000000 0.000000 0.000000
vn 1.000000 0.000000 0.000000
vn 1.000000 0.000000 0.000000
vn 0.000000 0.000000 -1.000000
vn 0.000000 0.000000 -1.000000
s 1
g pCube1
usemtl initialShadingGroup
f 17/56/1 55/57/2 56/58/3 24/51/4
s off
f 13/41/5 14/72/6 15/35/7 16/71/8
s 2
f 50/61/9 20/53/10 21/55/11 49/62/12
s 3
f 27/42/13 28/43/14 33/44/15 34/45/16
s 4
f 25/1/17 58/2/18 59/3/19 36/4/20
s 5
f 31/17/21 52/18/22 53/19/23 30/20/24
s 6
f 9/82/25 17/56/26 24/51/27 10/67/28
f 10/33/28 25/1/29 36/4/30 11/34/31
f 11/83/31 21/55/32 20/53/33 12/37/34
f 12/69/34 31/17/35 30/20/36 9/38/25
s off
f 9/82/37 10/67/38 14/85/39 13/39/40
f 10/33/41 11/34/42 15/84/43 14/36/44
f 11/83/45 12/37/46 16/71/47 15/35/48
f 12/69/49 9/38/50 13/86/51 16/40/52
s 1
f 54/25/53 55/57/2 17/56/1 3/26/54
s 3
f 32/75/55 33/44/15 28/43/14 29/76/56
s 2
f 5/54/57 20/53/10 50/61/9 51/63/58
s 6
f 12/37/34 20/53/33 5/54/59 31/52/35
s 2
f 60/9/60 49/62/12 21/55/11 6/10/61
s 3
f 26/74/62 27/42/13 34/45/16 35/73/63
s 1
f 24/51/4 56/58/3 57/5/64 4/6/65
s 6
f 10/33/28 24/70/27 4/6/66 25/1/29
s 4
f 57/5/67 58/2/18 25/1/17 4/6/68
s 3
f 23/47/69 27/42/13 26/74/62 2/15/70
f 18/80/71 28/43/14 27/42/13 23/47/69
f 29/76/56 28/43/14 18/80/71 1/77/72
s 5
f 30/20/24 53/19/23 54/25/73 3/26/74
s 6
f 9/38/25 30/20/36 3/26/75 17/50/26
s 5
f 51/21/76 52/18/22 31/17/21 5/22/77
s 3
f 7/81/78 19/48/79 33/44/15 32/75/55
f 34/45/16 33/44/15 19/48/79 22/49/80
f 35/73/63 34/45/16 22/49/80 8/16/81
s 4
f 36/4/20 59/3/19 60/9/82 6/10/83
s 6
f 11/83/31 36/68/30 6/10/84 21/55/32
s 2
f 19/48/85 38/64/86 37/65/87 22/49/88
f 39/66/89 38/64/86 19/48/85 7/81/90
s 5
f 7/31/91 32/28/92 40/23/93 39/27/94
f 41/24/95 40/23/93 32/28/92 29/29/96
f 42/30/97 41/24/95 29/29/96 1/32/98
s 1
f 1/32/99 18/46/100 43/59/101 42/30/102
f 44/60/103 43/59/101 18/46/100 23/79/104
f 45/11/105 44/60/103 23/79/104 2/78/106
s 4
f 2/78/107 26/12/108 46/7/109 45/11/110
f 47/8/111 46/7/109 26/12/108 35/13/112
f 48/14/113 47/8/111 35/13/112 8/16/114
s 2
f 22/49/88 37/65/87 48/14/115 8/16/116
f 38/64/86 50/61/9 49/62/12 37/65/87
f 51/63/58 50/61/9 38/64/86 39/66/89
s 5
f 39/27/94 40/23/93 52/18/22 51/21/76
f 53/19/23 52/18/22 40/23/93 41/24/95
f 54/25/73 53/19/23 41/24/95 42/30/97
s 1
f 42/30/102 43/59/101 55/57/2 54/25/53
f 56/58/3 55/57/2 43/59/101 44/60/103
f 57/5/64 56/58/3 44/60/103 45/11/105
s 4
f 45/11/110 46/7/109 58/2/18 57/5/67
f 59/3/19 58/2/18 46/7/109 47/8/111
f 60/9/82 59/3/19 47/8/111 48/14/113
s 2
f 48/14/115 37/65/87 49/62/12 60/9/60
