# This file uses centimeters as units for non-parametric coordinates.

mtllib pillow.mtl
g default
v -1.981272 -0.612606 1.428893
v -1.151281 -0.565723 1.383840
v -0.374536 -0.552125 1.350578
v 0.374536 -0.552125 1.350578
v 1.151281 -0.565723 1.383840
v 1.981272 -0.612606 1.428893
v -2.452736 0.000000 1.894804
v -1.435204 0.000000 1.847888
v -0.466902 0.000000 1.803472
v 0.466902 0.000000 1.803472
v 1.435204 0.000000 1.847888
v 2.452736 0.000000 1.894804
v -1.981272 0.612606 1.428893
v -1.151281 0.565723 1.383840
v -0.374536 0.552125 1.350578
v 0.374536 0.552125 1.350578
v 1.151281 0.565723 1.383840
v 1.981272 0.612606 1.428893
v -2.077819 0.612606 0.899114
v -1.151281 0.493135 0.830304
v -0.374536 0.479538 0.810347
v 0.374536 0.479538 0.810347
v 1.151281 0.493135 0.830304
v 2.077819 0.612606 0.899114
v -2.077819 0.612606 0.299705
v -1.151281 0.493135 0.276768
v -0.374536 0.479538 0.270116
v 0.374536 0.479538 0.270116
v 1.151281 0.493135 0.276768
v 2.077819 0.612606 0.299705
v -2.077819 0.612606 -0.299704
v -1.151281 0.493135 -0.276768
v -0.374536 0.479538 -0.270116
v 0.374536 0.479538 -0.270116
v 1.151281 0.493135 -0.276768
v 2.077819 0.612606 -0.299704
v -2.077819 0.612606 -0.899114
v -1.151281 0.493135 -0.830304
v -0.374536 0.479538 -0.810347
v 0.374536 0.479538 -0.810347
v 1.151281 0.493135 -0.830304
v 2.077819 0.612606 -0.899114
v -1.981272 0.612606 -1.428893
v -1.151281 0.565723 -1.383840
v -0.374536 0.552125 -1.350578
v 0.374536 0.552125 -1.350578
v 1.151281 0.565723 -1.383840
v 1.981272 0.612606 -1.428893
v -2.452736 0.000000 -1.894804
v -1.435204 0.000000 -1.847888
v -0.466902 0.000000 -1.803472
v 0.466902 0.000000 -1.803472
v 1.435204 0.000000 -1.847888
v 2.452736 0.000000 -1.894804
v -1.981272 -0.612606 -1.428893
v -1.151281 -0.565723 -1.383840
v -0.374536 -0.552125 -1.350578
v 0.374536 -0.552125 -1.350578
v 1.151281 -0.565723 -1.383840
v 1.981272 -0.612606 -1.428893
v -2.077819 -0.612606 -0.899114
v -1.151281 -0.493135 -0.830304
v -0.374536 -0.479538 -0.810347
v 0.374536 -0.479538 -0.810347
v 1.151281 -0.493135 -0.830304
v 2.077819 -0.612606 -0.899114
v -2.077819 -0.612606 -0.299705
v -1.151281 -0.493135 -0.276768
v -0.374536 -0.479538 -0.270116
v 0.374536 -0.479538 -0.270116
v 1.151281 -0.493135 -0.276768
v 2.077819 -0.612606 -0.299705
v -2.077819 -0.612606 0.299704
v -1.151281 -0.493135 0.276768
v -0.374536 -0.479538 0.270116
v 0.374536 -0.479538 0.270116
v 1.151281 -0.493135 0.276768
v 2.077819 -0.612606 0.299704
v -2.077819 -0.612606 0.899114
v -1.151281 -0.493135 0.830304
v -0.374536 -0.479538 0.810347
v 0.374536 -0.479538 0.810347
v 1.151281 -0.493135 0.830304
v 2.077819 -0.612606 0.899114
v 2.590239 0.000000 -1.200617
v 2.590239 0.000000 -0.400206
v 2.590239 0.000000 0.400206
v 2.590239 0.000000 1.200617
v -2.590239 0.000000 -1.200617
v -2.590239 0.000000 -0.400206
v -2.590239 0.000000 0.400206
v -2.590239 0.000000 1.200617
vt 0.375000 0.000000
vt 0.425000 0.000000
vt 0.475000 0.000000
vt 0.525000 0.000000
vt 0.575000 0.000000
vt 0.625000 0.000000
vt 0.375000 0.125000
vt 0.425000 0.125000
vt 0.475000 0.125000
vt 0.525000 0.125000
vt 0.575000 0.125000
vt 0.625000 0.125000
vt 0.375000 0.250000
vt 0.425000 0.250000
vt 0.475000 0.250000
vt 0.525000 0.250000
vt 0.575000 0.250000
vt 0.625000 0.250000
vt 0.375000 0.300000
vt 0.425000 0.300000
vt 0.475000 0.300000
vt 0.525000 0.300000
vt 0.575000 0.300000
vt 0.625000 0.300000
vt 0.375000 0.350000
vt 0.425000 0.350000
vt 0.475000 0.350000
vt 0.525000 0.350000
vt 0.575000 0.350000
vt 0.625000 0.350000
vt 0.375000 0.400000
vt 0.425000 0.400000
vt 0.475000 0.400000
vt 0.525000 0.400000
vt 0.575000 0.400000
vt 0.625000 0.400000
vt 0.375000 0.450000
vt 0.425000 0.450000
vt 0.475000 0.450000
vt 0.525000 0.450000
vt 0.575000 0.450000
vt 0.625000 0.450000
vt 0.375000 0.500000
vt 0.425000 0.500000
vt 0.475000 0.500000
vt 0.525000 0.500000
vt 0.575000 0.500000
vt 0.625000 0.500000
vt 0.375000 0.625000
vt 0.425000 0.625000
vt 0.475000 0.625000
vt 0.525000 0.625000
vt 0.575000 0.625000
vt 0.625000 0.625000
vt 0.375000 0.750000
vt 0.425000 0.750000
vt 0.475000 0.750000
vt 0.525000 0.750000
vt 0.575000 0.750000
vt 0.625000 0.750000
vt 0.375000 0.800000
vt 0.425000 0.800000
vt 0.475000 0.800000
vt 0.525000 0.800000
vt 0.575000 0.800000
vt 0.625000 0.800000
vt 0.375000 0.850000
vt 0.425000 0.850000
vt 0.475000 0.850000
vt 0.525000 0.850000
vt 0.575000 0.850000
vt 0.625000 0.850000
vt 0.375000 0.900000
vt 0.425000 0.900000
vt 0.475000 0.900000
vt 0.525000 0.900000
vt 0.575000 0.900000
vt 0.625000 0.900000
vt 0.375000 0.950000
vt 0.425000 0.950000
vt 0.475000 0.950000
vt 0.525000 0.950000
vt 0.575000 0.950000
vt 0.625000 0.950000
vt 0.375000 1.000000
vt 0.425000 1.000000
vt 0.475000 1.000000
vt 0.525000 1.000000
vt 0.575000 1.000000
vt 0.625000 1.000000
vt 0.875000 0.000000
vt 0.825000 0.000000
vt 0.775000 0.000000
vt 0.725000 0.000000
vt 0.675000 0.000000
vt 0.875000 0.125000
vt 0.825000 0.125000
vt 0.775000 0.125000
vt 0.725000 0.125000
vt 0.675000 0.125000
vt 0.875000 0.250000
vt 0.825000 0.250000
vt 0.775000 0.250000
vt 0.725000 0.250000
vt 0.675000 0.250000
vt 0.125000 0.000000
vt 0.175000 0.000000
vt 0.225000 0.000000
vt 0.275000 0.000000
vt 0.325000 0.000000
vt 0.125000 0.125000
vt 0.175000 0.125000
vt 0.225000 0.125000
vt 0.275000 0.125000
vt 0.325000 0.125000
vt 0.125000 0.250000
vt 0.175000 0.250000
vt 0.225000 0.250000
vt 0.275000 0.250000
vt 0.325000 0.250000
vn 0.054995 -0.596622 0.800636
vn 0.045824 -0.614034 0.787949
vn 0.062393 0.000000 0.998052
vn 0.068528 0.000000 0.997649
vn 0.018497 -0.630369 0.776075
vn 0.028309 0.000000 0.999599
vn -0.018497 -0.630369 0.776075
vn -0.028309 0.000000 0.999599
vn -0.045824 -0.614034 0.787949
vn -0.062393 -0.000000 0.998052
vn -0.054995 -0.596622 0.800636
vn -0.068528 0.000000 0.997649
vn 0.045824 0.614034 0.787949
vn 0.054995 0.596622 0.800636
vn 0.018497 0.630369 0.776075
vn -0.018497 0.630369 0.776075
vn -0.045824 0.614034 0.787949
vn -0.054995 0.596622 0.800636
vn 0.089234 0.993220 -0.074503
vn 0.054605 0.993434 -0.100531
vn 0.067249 0.996539 -0.048863
vn 0.109938 0.993329 -0.034810
vn 0.006668 0.991182 -0.132338
vn 0.007801 0.997787 -0.066038
vn -0.006668 0.991182 -0.132338
vn -0.007801 0.997787 -0.066038
vn -0.054605 0.993434 -0.100531
vn -0.067249 0.996539 -0.048863
vn -0.089234 0.993220 -0.074503
vn -0.109938 0.993329 -0.034810
vn 0.079327 0.996849 0.000000
vn 0.127884 0.991789 0.000000
vn 0.008965 0.999960 0.000000
vn -0.008965 0.999960 0.000000
vn -0.079327 0.996849 0.000000
vn -0.127884 0.991789 0.000000
vn 0.079327 0.996849 0.000000
vn 0.127884 0.991789 0.000000
vn 0.008965 0.999960 0.000000
vn -0.008965 0.999960 0.000000
vn -0.079327 0.996849 0.000000
vn -0.127884 0.991789 0.000000
vn 0.067249 0.996539 0.048863
vn 0.109938 0.993329 0.034810
vn 0.007801 0.997787 0.066038
vn -0.007801 0.997787 0.066038
vn -0.067249 0.996539 0.048863
vn -0.109938 0.993329 0.034810
vn 0.054605 0.993434 0.100531
vn 0.089234 0.993220 0.074503
vn 0.006668 0.991182 0.132338
vn -0.006668 0.991182 0.132338
vn -0.054605 0.993434 0.100531
vn -0.089234 0.993220 0.074503
vn 0.054995 0.596622 -0.800636
vn 0.045824 0.614034 -0.787949
vn 0.062393 -0.000000 -0.998052
vn 0.068528 -0.000000 -0.997649
vn 0.018497 0.630369 -0.776075
vn 0.028309 -0.000000 -0.999599
vn -0.018497 0.630369 -0.776075
vn -0.028309 0.000000 -0.999599
vn -0.045824 0.614034 -0.787949
vn -0.062393 0.000000 -0.998052
vn -0.054995 0.596622 -0.800636
vn -0.068528 0.000000 -0.997649
vn 0.045824 -0.614034 -0.787949
vn 0.054995 -0.596622 -0.800636
vn 0.018497 -0.630369 -0.776075
vn -0.018497 -0.630369 -0.776075
vn -0.045824 -0.614034 -0.787949
vn -0.054995 -0.596622 -0.800636
vn 0.089234 -0.993220 0.074503
vn 0.054605 -0.993434 0.100531
vn 0.067249 -0.996539 0.048863
vn 0.109938 -0.993329 0.034810
vn 0.006668 -0.991182 0.132338
vn 0.007801 -0.997787 0.066038
vn -0.006668 -0.991182 0.132338
vn -0.007801 -0.997787 0.066038
vn -0.054605 -0.993434 0.100531
vn -0.067249 -0.996539 0.048863
vn -0.089234 -0.993220 0.074503
vn -0.109938 -0.993329 0.034810
vn 0.079327 -0.996849 0.000000
vn 0.127884 -0.991789 0.000000
vn 0.008965 -0.999960 0.000000
vn -0.008965 -0.999960 0.000000
vn -0.079327 -0.996849 0.000000
vn -0.127884 -0.991789 0.000000
vn 0.079327 -0.996849 0.000000
vn 0.127884 -0.991789 0.000000
vn 0.008965 -0.999960 0.000000
vn -0.008965 -0.999960 0.000000
vn -0.079327 -0.996849 0.000000
vn -0.127884 -0.991789 0.000000
vn 0.067249 -0.996539 -0.048863
vn 0.109938 -0.993329 -0.034810
vn 0.007801 -0.997787 -0.066038
vn -0.007801 -0.997787 -0.066038
vn -0.067249 -0.996539 -0.048863
vn -0.109938 -0.993329 -0.034810
vn 0.054605 -0.993434 -0.100531
vn 0.089234 -0.993220 -0.074503
vn 0.006668 -0.991182 -0.132338
vn -0.006668 -0.991182 -0.132338
vn -0.054605 -0.993434 -0.100531
vn -0.089234 -0.993220 -0.074503
vn 0.753753 -0.654925 -0.054127
vn 0.727752 -0.671573 -0.139163
vn 0.982203 0.000000 -0.187820
vn 0.994199 0.000000 -0.107558
vn 0.767040 -0.641599 0.000000
vn 1.000000 -0.000000 0.000000
vn 0.767040 -0.641599 0.000000
vn 1.000000 0.000000 0.000000
vn 0.753753 -0.654925 0.054127
vn 0.994199 -0.000000 0.107558
vn 0.727752 -0.671573 0.139163
vn 0.982203 0.000000 0.187820
vn 0.727752 0.671573 -0.139163
vn 0.753753 0.654925 -0.054127
vn 0.767040 0.641599 0.000000
vn 0.767040 0.641599 0.000000
vn 0.753753 0.654925 0.054127
vn 0.727752 0.671573 0.139163
vn -0.727752 -0.671573 -0.139163
vn -0.753753 -0.654925 -0.054127
vn -0.994199 0.000000 -0.107558
vn -0.982203 0.000000 -0.187820
vn -0.767040 -0.641599 0.000000
vn -1.000000 -0.000000 0.000000
vn -0.767040 -0.641599 0.000000
vn -1.000000 0.000000 0.000000
vn -0.753753 -0.654925 0.054127
vn -0.994199 -0.000000 0.107558
vn -0.727752 -0.671573 0.139163
vn -0.982203 0.000000 0.187820
vn -0.753753 0.654925 -0.054127
vn -0.727752 0.671573 -0.139163
vn -0.767040 0.641599 0.000000
vn -0.767040 0.641599 0.000000
vn -0.753753 0.654925 0.054127
vn -0.727752 0.671573 0.139163
s 1
g pCube1
usemtl initialShadingGroup
f 1/1/1 2/2/2 8/8/3 7/7/4
f 2/2/2 3/3/5 9/9/6 8/8/3
f 3/3/5 4/4/7 10/10/8 9/9/6
f 4/4/7 5/5/9 11/11/10 10/10/8
f 5/5/9 6/6/11 12/12/12 11/11/10
f 7/7/4 8/8/3 14/14/13 13/13/14
f 8/8/3 9/9/6 15/15/15 14/14/13
f 9/9/6 10/10/8 16/16/16 15/15/15
f 10/10/8 11/11/10 17/17/17 16/16/16
f 11/11/10 12/12/12 18/18/18 17/17/17
s 2
f 13/13/19 14/14/20 20/20/21 19/19/22
f 14/14/20 15/15/23 21/21/24 20/20/21
f 15/15/23 16/16/25 22/22/26 21/21/24
f 16/16/25 17/17/27 23/23/28 22/22/26
f 17/17/27 18/18/29 24/24/30 23/23/28
f 19/19/22 20/20/21 26/26/31 25/25/32
f 20/20/21 21/21/24 27/27/33 26/26/31
f 21/21/24 22/22/26 28/28/34 27/27/33
f 22/22/26 23/23/28 29/29/35 28/28/34
f 23/23/28 24/24/30 30/30/36 29/29/35
f 25/25/32 26/26/31 32/32/37 31/31/38
f 26/26/31 27/27/33 33/33/39 32/32/37
f 27/27/33 28/28/34 34/34/40 33/33/39
f 28/28/34 29/29/35 35/35/41 34/34/40
f 29/29/35 30/30/36 36/36/42 35/35/41
f 31/31/38 32/32/37 38/38/43 37/37/44
f 32/32/37 33/33/39 39/39/45 38/38/43
f 33/33/39 34/34/40 40/40/46 39/39/45
f 34/34/40 35/35/41 41/41/47 40/40/46
f 35/35/41 36/36/42 42/42/48 41/41/47
f 37/37/44 38/38/43 44/44/49 43/43/50
f 38/38/43 39/39/45 45/45/51 44/44/49
f 39/39/45 40/40/46 46/46/52 45/45/51
f 40/40/46 41/41/47 47/47/53 46/46/52
f 41/41/47 42/42/48 48/48/54 47/47/53
s 3
f 43/43/55 44/44/56 50/50/57 49/49/58
f 44/44/56 45/45/59 51/51/60 50/50/57
f 45/45/59 46/46/61 52/52/62 51/51/60
f 46/46/61 47/47/63 53/53/64 52/52/62
f 47/47/63 48/48/65 54/54/66 53/53/64
f 49/49/58 50/50/57 56/56/67 55/55/68
f 50/50/57 51/51/60 57/57/69 56/56/67
f 51/51/60 52/52/62 58/58/70 57/57/69
f 52/52/62 53/53/64 59/59/71 58/58/70
f 53/53/64 54/54/66 60/60/72 59/59/71
s 4
f 55/55/73 56/56/74 62/62/75 61/61/76
f 56/56/74 57/57/77 63/63/78 62/62/75
f 57/57/77 58/58/79 64/64/80 63/63/78
f 58/58/79 59/59/81 65/65/82 64/64/80
f 59/59/81 60/60/83 66/66/84 65/65/82
f 61/61/76 62/62/75 68/68/85 67/67/86
f 62/62/75 63/63/78 69/69/87 68/68/85
f 63/63/78 64/64/80 70/70/88 69/69/87
f 64/64/80 65/65/82 71/71/89 70/70/88
f 65/65/82 66/66/84 72/72/90 71/71/89
f 67/67/86 68/68/85 74/74/91 73/73/92
f 68/68/85 69/69/87 75/75/93 74/74/91
f 69/69/87 70/70/88 76/76/94 75/75/93
f 70/70/88 71/71/89 77/77/95 76/76/94
f 71/71/89 72/72/90 78/78/96 77/77/95
f 73/73/92 74/74/91 80/80/97 79/79/98
f 74/74/91 75/75/93 81/81/99 80/80/97
f 75/75/93 76/76/94 82/82/100 81/81/99
f 76/76/94 77/77/95 83/83/101 82/82/100
f 77/77/95 78/78/96 84/84/102 83/83/101
f 79/79/98 80/80/97 2/86/103 1/85/104
f 80/80/97 81/81/99 3/87/105 2/86/103
f 81/81/99 82/82/100 4/88/106 3/87/105
f 82/82/100 83/83/101 5/89/107 4/88/106
f 83/83/101 84/84/102 6/90/108 5/89/107
s 5
f 66/92/109 60/91/110 54/96/111 85/97/112
f 72/93/113 66/92/109 85/97/112 86/98/114
f 78/94/115 72/93/113 86/98/114 87/99/116
f 84/95/117 78/94/115 87/99/116 88/100/118
f 6/6/119 84/95/117 88/100/118 12/12/120
f 85/97/112 54/96/111 48/101/121 42/102/122
f 86/98/114 85/97/112 42/102/122 36/103/123
f 87/99/116 86/98/114 36/103/123 30/104/124
f 88/100/118 87/99/116 30/104/124 24/105/125
f 12/12/120 88/100/118 24/105/125 18/18/126
s 6
f 55/106/127 61/107/128 89/112/129 49/111/130
f 61/107/128 67/108/131 90/113/132 89/112/129
f 67/108/131 73/109/133 91/114/134 90/113/132
f 73/109/133 79/110/135 92/115/136 91/114/134
f 79/110/135 1/1/137 7/7/138 92/115/136
f 49/111/130 89/112/129 37/117/139 43/116/140
f 89/112/129 90/113/132 31/118/141 37/117/139
f 90/113/132 91/114/134 25/119/142 31/118/141
f 91/114/134 92/115/136 19/120/143 25/119/142
f 92/115/136 7/7/138 13/13/144 19/120/143
